# xmcd
#
# Track frame offsets:
#	150
#	31407
#	49402
#	69492
#	103090
#	136572
#	166190
#	197447
#	260102
#
# Disc length: 3663 seconds
#
# Revision: 1
# Processed by: cddbd v1.5.2PL0 Copyright (c) Steve Scherf et al.
# Submitted via: audiograbber 1.83.01
#
DISCID=790e4d09
DTITLE=Grateful Dead - 93-05-25 Cal Expo Amphitheatre, Sacrimento CA
DYEAR=1900
DGENRE=
TTITLE0=Bertha
TTITLE1=Greatest Story Ever Told
TTITLE2=Jack-A-Roe
TTITLE3=Wang Dang Doodle
TTITLE4=Loose Lucy
TTITLE5=Queen Jane Approximately
TTITLE6=Lazy River Road
TTITLE7=Let It Grow
TTITLE8=Don't Ease Me In
EXTD=
EXTT0=
EXTT1=
EXTT2=
EXTT3=
EXTT4=
EXTT5=
EXTT6=
EXTT7=
EXTT8=
PLAYORDER=
